<svg xmlns="http://www.w3.org/2000/svg" xmlns:xlink="http://www.w3.org/1999/xlink" width="500" zoomAndPan="magnify" viewBox="0 0 375 374.999991" height="500" preserveAspectRatio="xMidYMid meet" version="1.2"><g id="0f08dbac64"><path style=" stroke:none;fill-rule:evenodd;fill:#00bf63;fill-opacity:1;" d="M 61.246094 260.476562 C 66.101562 259.210938 88.855469 108.667969 151.871094 70.277344 C 208.152344 35.992188 282.03125 56.914062 314.980469 113.984375 C 347.929688 171.054688 327.257812 242.324219 271.273438 277.085938 C 213.835938 312.761719 64.214844 262.601562 61.246094 260.476562 Z M 80.777344 250.789062 C 100.292969 256.902344 137.515625 267.097656 175.3125 271.804688 C 208.601562 275.949219 242.484375 276.628906 263.050781 263.851562 C 311.851562 233.542969 330.207031 171.515625 301.488281 121.773438 C 272.886719 72.234375 208.828125 53.820312 159.980469 83.585938 C 139.644531 95.960938 124.628906 121.832031 112.714844 149.332031 C 96.164062 187.550781 86.246094 229.476562 80.777344 250.789062 Z M 80.777344 250.789062 "/><path style=" stroke:none;fill-rule:evenodd;fill:#00bf63;fill-opacity:1;" d="M 156.78125 217.507812 C 147.101562 205.945312 141.292969 191.171875 141.292969 175.085938 C 141.292969 138.050781 172.085938 107.984375 210.015625 107.984375 C 247.949219 107.984375 278.742188 138.050781 278.742188 175.085938 C 278.742188 212.121094 247.949219 242.191406 210.015625 242.191406 C 195.152344 242.191406 181.378906 237.570312 170.132812 229.726562 L 147.609375 239.234375 Z M 156.941406 229.898438 L 170.726562 224.082031 L 172.972656 225.648438 C 183.421875 232.9375 196.210938 237.222656 210.015625 237.222656 C 245.171875 237.222656 273.773438 209.414062 273.773438 175.085938 C 273.773438 140.761719 245.171875 112.953125 210.015625 112.953125 C 174.859375 112.953125 146.257812 140.761719 146.257812 175.085938 C 146.257812 189.964844 151.636719 203.625 160.589844 214.320312 L 162.539062 216.644531 Z M 156.941406 229.898438 "/><path style=" stroke:none;fill-rule:evenodd;fill:#00bf63;fill-opacity:1;" d="M 202.964844 176.734375 C 206.863281 183.582031 211.945312 189.179688 218.105469 193.640625 C 218.105469 193.640625 216.957031 186.066406 225.460938 186.011719 C 229.699219 185.980469 238.550781 198.972656 239.230469 205.375 C 239.65625 209.394531 228.386719 218 224.078125 216.371094 C 216.917969 213.664062 202.234375 202.503906 194.308594 191.46875 L 194.277344 191.5 C 192.199219 188.480469 190.375 185.480469 188.894531 182.667969 C 182.429688 170.371094 179.765625 149.824219 181.140625 141.710938 C 181.914062 137.171875 195.035156 131.792969 198.285156 134.1875 C 203.46875 138.007812 210.210938 152.210938 208.046875 155.851562 C 203.703125 163.164062 197.742188 158.347656 197.742188 158.347656 C 198.367188 164.738281 200.074219 170.871094 202.964844 176.734375 Z M 202.964844 176.734375 "/></g></svg>